<svg width="42" height="40" viewBox="0 0 42 40" fill="none" xmlns="http://www.w3.org/2000/svg">
<path d="M10.7796 6.21281L12.7532 8.88691C9.20327 11.2482 6.88256 15.1587 6.88256 19.5834C6.88256 26.7938 13.0454 32.6389 20.6477 32.6389C28.2499 32.6389 34.4128 26.7938 34.4128 19.5834C34.4128 15.1587 32.092 11.2482 28.5421 8.88691L30.5157 6.21281C34.9532 9.16436 37.854 14.0526 37.854 19.5834C37.854 28.5963 30.1504 35.9028 20.6477 35.9028C11.1448 35.9028 3.44128 28.5963 3.44128 19.5834C3.44128 14.0526 6.34218 9.16436 10.7796 6.21281ZM18.927 19.5834V3.26392H22.3683V19.5834H18.927Z" fill="url(#paint0_linear_30_21)"/>
<defs>
<linearGradient id="paint0_linear_30_21" x1="3.47569" y1="19.7465" x2="38.0605" y2="19.7465" gradientUnits="userSpaceOnUse">
<stop stop-color="#DE29AB"/>
<stop offset="1" stop-color="#D21871"/>
</linearGradient>
</defs>
</svg>
